<?xml version="1.0" standalone="no"?>
<!DOCTYPE svg PUBLIC "-//W3C//DTD SVG 20010904//EN"
 "http://www.w3.org/TR/2001/REC-SVG-20010904/DTD/svg10.dtd">
<svg version="1.0" xmlns="http://www.w3.org/2000/svg"
 width="1000.000000pt" height="1000.000000pt" viewBox="0 0 1000.000000 1000.000000"
 preserveAspectRatio="xMidYMid meet">
<metadata>
Created by potrace 1.14, written by Peter Selinger 2001-2017
</metadata>
<g transform="translate(0.000000,1000.000000) scale(0.100000,-0.100000)"
fill="#000000" stroke="none">
<path d="M0 5000 l0 -5000 5000 0 5000 0 0 5000 0 5000 -5000 0 -5000 0 0
-5000z m7156 4185 c4 -8 -100 -413 -230 -900 -130 -487 -236 -891 -236 -898 0
-7 28 -34 63 -58 390 -281 720 -705 902 -1159 191 -475 235 -1015 123 -1495
-134 -574 -508 -1107 -1033 -1472 -224 -155 -416 -249 -758 -372 -10 -3 208
-42 484 -86 275 -43 508 -84 516 -90 13 -10 -19 -137 -232 -926 -136 -502
-251 -918 -255 -923 -6 -6 -932 134 -2337 353 -1280 200 -2340 365 -2355 368
-20 4 -28 12 -28 26 0 17 411 1556 476 1785 14 45 19 52 41 52 14 0 253 -36
531 -80 278 -44 509 -79 514 -78 4 2 -36 38 -90 80 -423 333 -744 819 -873
1322 -60 232 -84 556 -60 812 85 899 639 1698 1471 2118 286 145 574 234 920
283 l55 8 175 655 c96 360 178 663 182 673 7 16 65 17 1018 17 887 0 1011 -2
1016 -15z"/>
<path d="M4920 5775 c-219 -62 -394 -242 -439 -453 -15 -74 -14 -206 4 -272
50 -191 201 -354 391 -421 74 -27 229 -36 316 -20 165 32 338 163 412 311 50
102 66 168 66 275 0 103 -16 172 -61 263 -65 133 -199 252 -340 302 -84 30
-268 37 -349 15z"/>
</g>
</svg>
